<?xml version="1.0" standalone="no"?>
<!DOCTYPE svg PUBLIC "-//W3C//DTD SVG 1.1//EN" "http://www.w3.org/Graphics/SVG/1.1/DTD/svg11.dtd">
<svg xmlns="http://www.w3.org/2000/svg" id="Layer_2" viewBox="0 0 287.02 179.41" width="287.0199890136719" height="179.41000366210938"><g id="Layer_1-2"><path d="M82.49,163.39v15.83h-2.26v-7.06h-9.09v7.06h-2.26v-15.83h2.26v6.81h9.09v-6.81h2.26Z" style="fill:#fff; stroke-width:0px;"/><path d="M108.16,178.36c-1.28-.7-2.29-1.67-3.02-2.91-.73-1.24-1.1-2.62-1.1-4.14s.37-2.9,1.1-4.14c.73-1.24,1.74-2.21,3.02-2.91s2.72-1.05,4.32-1.05,3.02.35,4.3,1.05c1.28.7,2.28,1.67,3.01,2.9.72,1.23,1.09,2.61,1.09,4.15s-.36,2.92-1.09,4.15c-.72,1.23-1.73,2.19-3.01,2.9-1.28.7-2.71,1.05-4.3,1.05-1.6,0-3.04-.35-4.32-1.05ZM115.62,176.6c.93-.53,1.66-1.26,2.19-2.18s.8-1.96.8-3.11-.27-2.18-.8-3.11c-.54-.93-1.27-1.65-2.19-2.18s-1.97-.79-3.13-.79-2.21.26-3.15.79c-.94.53-1.68,1.26-2.22,2.18-.54.93-.8,1.96-.8,3.11s.27,2.18.8,3.11c.54.93,1.27,1.65,2.22,2.18s1.99.79,3.15.79,2.21-.26,3.13-.79Z" style="fill:#fff; stroke-width:0px;"/><path d="M145.35,165.36h-5.43v-1.97h13.1v1.97h-5.43v13.87h-2.24v-13.87h0Z" style="fill:#fff; stroke-width:0px;"/><path d="M185.06,177.26v1.97h-11.49v-15.83h11.17v1.97h-8.91v4.86h7.94v1.92h-7.94v5.11h9.23Z" style="fill:#fff; stroke-width:0px;"/><path d="M206.82,163.39h2.26v13.86h8.57v1.97h-10.83v-15.83Z" style="fill:#fff; stroke-width:0px;"/><path d="M6.09,112.72l1.58-.02c4.74-.1,7.38-.15,7.92-.15,6.58,0,11.5,1.49,14.77,4.46,3.26,2.98,4.9,7.32,4.9,13.03,0,3.67-.8,6.88-2.39,9.63s-3.91,4.88-6.93,6.39c-3.03,1.51-6.62,2.26-10.78,2.26-.49,0-1.65-.02-3.47-.07-1.82-.05-3.12-.07-3.91-.07-3.47,0-6.06.05-7.77.15v-1.01c1.12-.05,1.93-.18,2.44-.4.51-.21.86-.61,1.05-1.18.19-.57.28-1.5.28-2.76v-25.07c0-1.27-.1-2.19-.28-2.76-.19-.57-.54-.97-1.05-1.18-.51-.21-1.32-.35-2.44-.4v-1.01c2.15.12,4.18.17,6.09.17ZM12.11,145.79c.2.6.56,1.02,1.09,1.26.53.24,1.32.36,2.39.36,2.78,0,5-.65,6.65-1.96,1.65-1.31,2.84-3.21,3.55-5.72s1.07-5.67,1.07-9.49-.38-6.98-1.15-9.44c-.76-2.46-1.98-4.3-3.64-5.51-1.66-1.22-3.84-1.82-6.54-1.82-1.05,0-1.84.12-2.36.36s-.88.66-1.07,1.27c-.2.61-.3,1.51-.3,2.71v25.26c0,1.22.1,2.13.29,2.73Z" style="fill:#fff; stroke-width:0px;"/><path d="M69.32,114c2.69,1.45,4.77,3.55,6.25,6.3,1.48,2.76,2.22,6.03,2.22,9.83s-.76,7.01-2.28,9.87-3.64,5.08-6.35,6.66-5.8,2.37-9.25,2.37-6.7-.72-9.39-2.17-4.77-3.55-6.24-6.3c-1.47-2.75-2.21-6.03-2.21-9.83s.76-7.01,2.27-9.87c1.51-2.86,3.63-5.08,6.34-6.66,2.71-1.58,5.81-2.37,9.28-2.37,3.55,0,6.67.72,9.36,2.17ZM54.86,115c-1.41,1.51-2.49,3.6-3.26,6.29-.76,2.69-1.15,5.77-1.15,9.24s.43,6.59,1.28,9.25c.86,2.66,2.01,4.72,3.48,6.17s3.09,2.17,4.89,2.17,3.49-.75,4.9-2.26c1.41-1.51,2.49-3.6,3.26-6.29s1.15-5.77,1.15-9.24-.43-6.57-1.28-9.24c-.86-2.67-2.02-4.73-3.49-6.18-1.47-1.45-3.1-2.17-4.87-2.17-1.86,0-3.49.75-4.9,2.26Z" style="fill:#fff; stroke-width:0px;"/><path d="M109.04,131.19c1.9.88,3.27,1.96,4.12,3.23.85,1.27,1.27,2.65,1.27,4.11,0,2.09-.56,3.87-1.68,5.34-1.12,1.47-2.72,2.58-4.81,3.33s-4.57,1.12-7.45,1.12c-.72,0-1.96-.02-3.71-.07-1.75-.05-3.52-.07-5.29-.07-3.47,0-6.06.05-7.77.15v-1.01c1.12-.05,1.93-.18,2.44-.4.51-.21.86-.61,1.05-1.18.19-.57.28-1.5.28-2.76v-25.07c0-1.27-.1-2.19-.28-2.76-.19-.57-.54-.97-1.05-1.18s-1.32-.35-2.44-.4v-1.01c1.69.1,4.25.15,7.67.15,1.35,0,2.84-.02,4.49-.05s2.79-.05,3.43-.05c2.71,0,5,.33,6.87,1s3.27,1.6,4.21,2.79,1.41,2.58,1.41,4.16c0,1.25-.36,2.48-1.09,3.68-.72,1.2-1.85,2.27-3.37,3.2s-3.4,1.6-5.64,2.01v.1c2.99.24,5.44.79,7.34,1.67ZM102.31,127.08c.88-1.5,1.32-3.49,1.32-5.99s-.4-4.42-1.18-5.66-2.05-1.86-3.77-1.86c-.9,0-1.57.12-2.01.36s-.73.66-.89,1.26c-.16.6-.23,1.51-.23,2.73v11.42h2.17c2.19,0,3.72-.75,4.6-2.25ZM95.8,145.66c.17.58.5.97.98,1.18s1.23.32,2.24.32c4.69,0,7.03-2.95,7.03-8.86,0-2.65-.67-4.66-2.01-6.04-1.34-1.38-3.47-2.07-6.38-2.07h-2.12v12.78c0,1.22.09,2.11.26,2.69Z" style="fill:#fff; stroke-width:0px;"/><path d="M151.24,148.35c-1.04.46-2.3.69-3.76.69-1.94,0-3.48-.41-4.61-1.23s-1.88-2.24-2.22-4.24l-.91-5.03c-.3-1.63-.6-2.94-.93-3.93-.32-.99-.78-1.78-1.38-2.37s-1.39-.88-2.38-.88h-3.28v11.62c0,1.27.09,2.19.27,2.76.18.58.53.97,1.04,1.18.51.21,1.33.35,2.47.4v1.01c-1.79-.1-4.33-.15-7.62-.15-3.6,0-6.26.05-7.97.15v-1.01c1.12-.05,1.93-.18,2.44-.4.51-.21.86-.61,1.05-1.18.19-.57.28-1.5.28-2.76v-25.07c0-1.27-.1-2.19-.28-2.76-.19-.57-.54-.97-1.05-1.18-.51-.21-1.32-.35-2.44-.4v-1.01c1.71.1,4.27.15,7.67.15,1.35,0,2.85-.02,4.49-.05s2.79-.05,3.43-.05c4.64,0,8.13.76,10.48,2.28,2.35,1.52,3.53,3.69,3.53,6.5,0,1.5-.35,2.92-1.06,4.27-.71,1.35-1.91,2.52-3.6,3.52-1.69.99-3.93,1.66-6.71,1.99h.05c2.04.18,3.71.53,5.02,1.04,1.31.51,2.33,1.22,3.07,2.13.74.91,1.26,2.08,1.55,3.49l1.16,5.21c.28,1.37.6,2.31.95,2.84s.85.79,1.49.79c.4-.02.74-.12,1.04-.3.3-.18.62-.47.99-.86l.69.62c-.92,1.04-1.9,1.79-2.95,2.25ZM138.36,129.25c1.06-.73,1.79-1.69,2.2-2.91.4-1.22.6-2.68.6-4.39,0-2.76-.49-4.85-1.47-6.27-.98-1.41-2.58-2.12-4.8-2.12-.9,0-1.57.12-2.01.36s-.73.66-.89,1.26c-.16.6-.23,1.51-.23,2.73v12.43h2.17c1.89,0,3.37-.36,4.43-1.09Z" style="fill:#fff; stroke-width:0px;"/><path d="M185.02,114c2.69,1.45,4.77,3.55,6.25,6.3,1.48,2.76,2.22,6.03,2.22,9.83s-.76,7.01-2.28,9.87-3.64,5.08-6.35,6.66-5.8,2.37-9.25,2.37-6.7-.72-9.39-2.17c-2.69-1.45-4.77-3.55-6.24-6.3-1.47-2.75-2.21-6.03-2.21-9.83s.76-7.01,2.27-9.87c1.51-2.86,3.63-5.08,6.34-6.66,2.71-1.58,5.81-2.37,9.27-2.37,3.55,0,6.67.72,9.36,2.17ZM170.56,115c-1.41,1.51-2.49,3.6-3.26,6.29-.76,2.69-1.15,5.77-1.15,9.24s.43,6.59,1.28,9.25c.85,2.66,2.01,4.72,3.48,6.17s3.09,2.17,4.88,2.17,3.49-.75,4.9-2.26c1.41-1.51,2.49-3.6,3.26-6.29s1.15-5.77,1.15-9.24-.43-6.57-1.28-9.24c-.85-2.67-2.02-4.73-3.49-6.18-1.47-1.45-3.1-2.17-4.87-2.17-1.86,0-3.49.75-4.9,2.26Z" style="fill:#fff; stroke-width:0px;"/><path d="M227.42,112.7c1.55,0,2.83-.05,3.85-.15v1.01c-.84.33-1.67.98-2.49,1.94-.82.96-1.55,2.32-2.17,4.08l-10.66,28.84c-.38-.03-.97-.05-1.78-.05s-1.34.02-1.7.05l-12.9-31.63c-.43-1.12-.93-1.93-1.49-2.43s-1.13-.77-1.69-.8v-1.01c2.02.1,4.59.15,7.7.15,3.44,0,5.99-.05,7.67-.15v1.01c-1.27.05-2.18.2-2.73.46-.55.26-.83.73-.83,1.42,0,.53.21,1.32.62,2.37l8.91,22.62,6.22-16.75c.94-2.65,1.41-4.7,1.41-6.17,0-1.35-.36-2.33-1.07-2.95-.72-.62-1.77-.95-3.17-1v-1.01c2.27.1,4.37.15,6.31.15Z" style="fill:#fff; stroke-width:0px;"/><path d="M248.01,113.95c-.51.21-.86.61-1.04,1.18-.18.58-.27,1.5-.27,2.76v25.07c0,1.27.09,2.19.27,2.76.18.58.53.97,1.04,1.18.51.21,1.33.35,2.47.4v1.01c-1.79-.1-4.33-.15-7.62-.15-3.6,0-6.26.05-7.97.15v-1.01c1.12-.05,1.93-.18,2.44-.4.51-.21.86-.61,1.05-1.18.19-.57.28-1.5.28-2.76v-25.07c0-1.27-.1-2.19-.28-2.76-.19-.57-.54-.97-1.05-1.18s-1.32-.35-2.44-.4v-1.01c1.69.1,4.35.15,7.97.15,3.29,0,5.83-.05,7.62-.15v1.01c-1.14.05-1.96.18-2.47.4Z" style="fill:#fff; stroke-width:0px;"/><path d="M256.2,121.13c0-2.3-.12-5.16-.37-8.59,3.08.1,8.28.15,15.62.15s12.52-.05,15.57-.15c-.25,3.42-.37,6.28-.37,8.59,0,1.45.06,2.73.17,3.85h-1.16c-.56-2.81-1.24-5.04-2.05-6.67s-1.77-2.81-2.9-3.53c-1.13-.72-2.5-1.07-4.11-1.07h-1.16v28.86c0,1.4.14,2.42.43,3.06.29.64.8,1.08,1.53,1.31.73.23,1.88.35,3.44.37v1.01c-4.24-.1-7.44-.15-9.6-.15s-5.21.05-9.25.15v-1.01c1.58-.02,2.73-.14,3.47-.37.73-.23,1.24-.67,1.52-1.31s.42-1.66.42-3.06v-28.86h-1.11c-1.63,0-3.01.35-4.13,1.06-1.13.71-2.09,1.88-2.9,3.52-.81,1.64-1.5,3.87-2.07,6.7h-1.16c.11-1.12.17-2.4.17-3.85Z" style="fill:#fff; stroke-width:0px;"/><polygon points="171.52 5.54 172.65 11.18 177.92 13.45 172.91 16.25 172.38 21.98 168.16 18.08 162.56 19.34 164.96 14.12 162.03 9.19 167.73 9.86 171.52 5.54" style="fill:#fff; stroke-width:0px;"/><polygon points="143.36 0 145.9 5.15 151.59 5.98 147.47 9.99 148.44 15.65 143.36 12.98 138.28 15.65 139.25 9.99 135.13 5.98 140.82 5.15 143.36 0" style="fill:#fff; stroke-width:0px;"/><polygon points="115.2 5.54 118.99 9.86 124.69 9.19 121.76 14.12 124.16 19.34 118.56 18.08 114.34 21.98 113.81 16.25 108.8 13.45 114.07 11.18 115.2 5.54" style="fill:#fff; stroke-width:0px;"/><path d="M183.48,58.07c-1.2-3-2.85-5.24-4.95-6.72-2.1-1.49-4.51-2.23-7.23-2.23s-5.11.63-7.17,1.89c-2.07,1.26-3.62,3.08-4.68,5.47v-18.92c.04-2.21.4-3.83,1.11-4.84.74-1.07,2.02-1.6,3.83-1.6v-1.62c-5.66.7-13,1.12-21.02,1.12h0c-8.03,0-15.37-.42-21.02-1.12v1.62c1.81,0,3.09.53,3.83,1.6.71,1.02,1.07,2.63,1.11,4.84v18.92c-1.06-2.39-2.62-4.22-4.68-5.47-2.06-1.26-4.46-1.89-7.17-1.89s-5.13.74-7.23,2.23c-2.1,1.49-3.75,3.73-4.95,6.72-1.2,3-1.79,6.68-1.79,11.06,0,5.14.79,9.35,2.36,12.65,1.57,3.3,3.69,5.7,6.34,7.21,2.66,1.51,5.66,2.27,9.01,2.27,3.57,0,6.45-1.91,10.01-2.3,4.19-.46,6.6.61,8.61,2.45l1.17-.72c-.35-1.31-.53-2.74-.53-4.3v-47.43c0-2.39.37-4.12,1.11-5.19s2.02-1.6,3.83-1.6h0c1.81,0,3.09.53,3.83,1.6.74,1.07,1.11,2.8,1.11,5.19v47.43c0,1.56-.18,3-.53,4.3l1.17.72c2.01-1.84,4.42-2.91,8.61-2.45,3.56.39,6.43,2.3,10.01,2.3,3.35,0,6.35-.75,9.01-2.27,2.66-1.51,4.77-3.91,6.34-7.21,1.57-3.3,2.36-7.51,2.36-12.65,0-4.38-.6-8.07-1.79-11.06ZM127.27,88.3s-3.6,1.34-5.74,1.34c-5.61,0-8.42-6.47-8.42-19.41,0-6.34.59-10.89,1.76-13.65,1.17-2.76,2.88-4.14,5.12-4.14,1.69,0,3.22.6,4.59,1.81s2.27,2.85,2.7,4.91v29.13h0ZM165.19,89.64c-2.14,0-5.74-1.34-5.74-1.34v-29.13c.43-2.06,1.33-3.7,2.7-4.91s2.9-1.81,4.59-1.81c2.24,0,3.95,1.38,5.12,4.14,1.17,2.76,1.76,7.31,1.76,13.65,0,12.94-2.81,19.41-8.42,19.41Z" style="fill:#fff; stroke-width:0px;"/></g></svg>