<?xml version="1.0" standalone="no"?>
<!DOCTYPE svg PUBLIC "-//W3C//DTD SVG 1.1//EN" "http://www.w3.org/Graphics/SVG/1.1/DTD/svg11.dtd">
<svg xmlns="http://www.w3.org/2000/svg" xmlns:xlink="http://www.w3.org/1999/xlink" version="1.1" id="Layer_1" x="0px" y="0px" viewBox="0 0 349.52 74.82" style="enable-background:new 0 0 349.52 74.82;" xml:space="preserve" width="349.5199890136719" height="74.81999969482422">
<style type="text/css">
	.st0{fill:#FFFFFF;}
	.st1{fill:#B79B7E;}
</style>
<g>
	<g>
		<path class="st0" d="M93.24,65.65V42.68h-8.25V36.3h25.07v6.38h-8.25v22.97H93.24z"/>
		<path class="st0" d="M112.34,65.65V36.3h15.27c2.4,0,4.37,0.44,5.9,1.32s2.68,2.1,3.44,3.67c0.76,1.57,1.14,3.38,1.14,5.45    s-0.49,3.71-1.48,5.22c-0.99,1.5-2.3,2.65-3.94,3.44c0.33,0.27,0.62,0.6,0.87,0.98c0.24,0.38,0.52,0.9,0.82,1.57l3.37,7.7h-8.93    l-3.1-7.06c-0.24-0.55-0.54-0.93-0.89-1.16c-0.35-0.23-0.84-0.34-1.48-0.34h-2.42v8.57h-8.57V65.65z M120.91,50.52h4.51    c1.25,0,2.21-0.33,2.89-0.98s1.03-1.59,1.03-2.8c0-2.58-1.22-3.87-3.65-3.87h-4.79v7.66L120.91,50.52z"/>
		<path class="st0" d="M138.32,65.64l11.25-29.35h9.07l11.26,29.35h-8.93l-2.46-6.24h-8.84l-2.41,6.25L138.32,65.64L138.32,65.64z     M150.81,53.24h6.56l-3.28-8.61L150.81,53.24z"/>
		<path class="st0" d="M173.09,65.64V36.29h8.57v10.35l8.89-10.35h9.75l-10.35,12.03l11.08,17.32h-9.12l-7.25-11.85l-3.01,3.37v8.48    L173.09,65.64L173.09,65.64z"/>
		<path class="st0" d="M215.35,66.09c-4.86,0-8.58-1.18-11.14-3.55c-2.57-2.37-3.85-6.2-3.85-11.49c0-3.65,0.58-6.59,1.73-8.82    c1.15-2.23,2.85-3.86,5.08-4.88s4.96-1.53,8.18-1.53c3.22,0,5.95,0.51,8.18,1.53c2.23,1.02,3.93,2.64,5.08,4.88    c1.15,2.23,1.73,5.17,1.73,8.82c0,5.29-1.29,9.12-3.87,11.49C223.89,64.91,220.18,66.1,215.35,66.09L215.35,66.09z M215.35,58.8    c2.19,0,3.78-0.62,4.76-1.85c0.99-1.23,1.48-3.2,1.48-5.9c0-2.89-0.49-4.93-1.48-6.13c-0.99-1.2-2.58-1.8-4.76-1.8    s-3.78,0.6-4.76,1.8c-0.99,1.2-1.48,3.24-1.48,6.13c0,2.7,0.49,4.67,1.48,5.9C211.58,58.18,213.17,58.8,215.35,58.8z"/>
		<path class="st0" d="M243.15,66.09c-1.98,0-3.84-0.16-5.61-0.48c-1.76-0.32-3.27-0.77-4.51-1.34v-7.06    c1.37,0.64,2.89,1.15,4.56,1.55c1.67,0.39,3.24,0.59,4.69,0.59s2.67-0.13,3.44-0.39s1.16-0.84,1.16-1.76    c0-0.64-0.22-1.14-0.66-1.5s-1.12-0.7-2.05-1s-2.14-0.68-3.62-1.14c-1.98-0.64-3.54-1.34-4.7-2.1c-1.16-0.76-1.98-1.69-2.48-2.78    s-0.75-2.43-0.75-4.01c0-2.89,1.02-5.08,3.08-6.59c2.05-1.5,5.1-2.26,9.14-2.26c1.61,0,3.27,0.14,4.99,0.41s3.11,0.58,4.17,0.91    v7.11c-1.43-0.58-2.8-0.99-4.1-1.23c-1.31-0.24-2.54-0.36-3.69-0.36c-1.34,0-2.48,0.11-3.42,0.32s-1.41,0.76-1.41,1.64    c0,0.76,0.4,1.31,1.21,1.66c0.8,0.35,2.24,0.8,4.31,1.34c2.4,0.64,4.23,1.41,5.49,2.32s2.12,1.97,2.58,3.17s0.68,2.56,0.68,4.08    c0,2.67-1.03,4.82-3.1,6.45C250.48,65.27,247.35,66.08,243.15,66.09L243.15,66.09z M241.14,34.28l-7.07-9.12h6.38l3.28,4.97    l3.46-4.97h6.2l-7.06,9.12h-5.2H241.14z"/>
		<path class="st0" d="M274.28,66.08c-5.32,0-9.37-1.31-12.17-3.92c-2.8-2.61-4.19-6.3-4.19-11.08s1.37-8.7,4.1-11.33    s6.81-3.94,12.21-3.94c1.82,0,3.45,0.14,4.88,0.41s2.8,0.65,4.1,1.14v7.48c-2.61-1.15-5.41-1.73-8.39-1.73    c-2.77,0-4.82,0.63-6.15,1.89c-1.34,1.26-2,3.29-2,6.09s0.71,4.7,2.12,5.9s3.46,1.8,6.13,1.8c1.46,0,2.88-0.14,4.26-0.41    s2.76-0.7,4.12-1.28v7.52c-1.31,0.46-2.68,0.81-4.12,1.07C277.74,65.95,276.1,66.08,274.28,66.08z M270.36,34.27l4.01-9.39h6.65    l-4.37,9.39H270.36z"/>
		<path class="st0" d="M284.67,65.62l11.25-29.35h9.07l11.26,29.35h-8.93l-2.46-6.24h-8.84l-2.41,6.25h-8.93L284.67,65.62z     M297.16,53.22h6.56l-3.28-8.61L297.16,53.22z"/>
		<path class="st0" d="M319.45,65.62V36.27h7.29l11.08,15.54V36.27h8.57v29.35h-7.33l-11.03-15.5v15.5h-8.57H319.45z"/>
	</g>
	<g>
		<path class="st0" d="M86.16,26.43V9h2.22v7.85h9.2V9h2.22v17.43h-2.22v-7.85h-9.2v7.85C88.38,26.43,86.16,26.43,86.16,26.43z"/>
		<path class="st0" d="M111.08,26.7c-2.72,0-4.75-0.72-6.06-2.15c-1.32-1.43-1.98-3.71-1.98-6.83s0.66-5.4,1.98-6.83    c1.32-1.43,3.34-2.15,6.06-2.15s4.77,0.72,6.08,2.15s1.96,3.71,1.96,6.83s-0.65,5.4-1.96,6.83    C115.85,25.98,113.83,26.7,111.08,26.7z M111.08,24.81c1.32,0,2.4-0.23,3.26-0.68s1.5-1.19,1.92-2.23s0.64-2.43,0.64-4.18    s-0.21-3.14-0.64-4.18c-0.42-1.04-1.06-1.78-1.92-2.23c-0.86-0.45-1.94-0.68-3.26-0.68s-2.4,0.23-3.26,0.68s-1.5,1.2-1.92,2.23    c-0.42,1.04-0.64,2.43-0.64,4.18s0.21,3.14,0.64,4.18c0.42,1.04,1.06,1.78,1.92,2.23S109.76,24.81,111.08,24.81z"/>
		<path class="st0" d="M126,26.43V10.76h-5.79V9h13.8v1.76h-5.79v15.67H126L126,26.43z"/>
		<path class="st0" d="M136.71,26.43V9h11.77v1.76h-9.55v6.09h8.58v1.73h-8.58v6.12h9.55v1.73H136.71z"/>
		<path class="st0" d="M151.73,26.43V9h2.22v15.7h9.28v1.73H151.73z"/>
	</g>
	<polygon class="st0" points="173.83,9.01 175.37,12.12 178.81,12.62 176.32,15.04 176.91,18.46 173.83,16.85 170.76,18.46    171.35,15.04 168.86,12.62 172.3,12.12  "/>
	<polygon class="st0" points="185.61,9.01 187.14,12.12 190.58,12.62 188.09,15.04 188.68,18.46 185.61,16.85 182.53,18.46    183.12,15.04 180.63,12.62 184.07,12.12  "/>
	<polygon class="st0" points="197.38,9.01 198.91,12.12 202.35,12.62 199.86,15.04 200.45,18.46 197.38,16.85 194.3,18.46    194.89,15.04 192.41,12.62 195.84,12.12  "/>
	<polygon class="st0" points="209.15,9.01 210.69,12.12 214.12,12.62 211.64,15.04 212.22,18.46 209.15,16.85 206.08,18.46    206.66,15.04 204.18,12.62 207.61,12.12  "/>
</g>
<g>
	<rect x="1.25" y="43.35" class="st1" width="23.86" height="30.49"/>
	<rect x="41.54" y="43.35" class="st1" width="23.86" height="30.49"/>
	<polygon class="st1" points="41.54,1.32 41.54,16.47 25.11,16.47 25.11,1.32 1.25,1.32 1.25,30.81 65.4,30.81 65.4,1.32  "/>
</g>
</svg>