<?xml version="1.0" standalone="no"?>
<!DOCTYPE svg PUBLIC "-//W3C//DTD SVG 1.1//EN" "http://www.w3.org/Graphics/SVG/1.1/DTD/svg11.dtd">
<svg xmlns="http://www.w3.org/2000/svg" viewBox="92 168 694 253" width="694" height="253">
<defs>
  <mask id="m">
    <path d="M0 0 C1.1443174 -0.0098568 1.1443174 -0.0098568 2.31175232 -0.01991272 C4.85432023 -0.03972564 7.39682831 -0.05133767 9.93945312 -0.0612793 C10.81095505 -0.06535482 11.68245697 -0.06943035 12.58036804 -0.07362938 C17.20998907 -0.09454285 21.83958016 -0.1088109 26.46923828 -0.11816406 C31.21071467 -0.1291255 35.95170823 -0.1633884 40.69301605 -0.20333576 C44.36868026 -0.22975994 48.04423517 -0.2378794 51.71998596 -0.24144554 C53.46435232 -0.24626034 55.20871554 -0.25772457 56.95298767 -0.27648354 C75.71811288 -0.46543646 95.30187167 2.09917702 109.72070312 15.36450195 C118.98615862 25.45815458 122.26910402 37.56657588 121.97070312 50.9777832 C121.30145858 65.58404536 116.49647718 79.27096598 106.72070312 90.17700195 C105.75197266 91.30235352 105.75197266 91.30235352 104.76367188 92.45043945 C97.6394642 100.19586746 88.54879582 105.50070412 78.72070312 109.17700195 C79.35325615 113.34335995 80.75565734 116.66759397 82.59960938 120.4465332 C82.88769974 121.04061981 83.1757901 121.63470642 83.47261047 122.24679565 C84.40400017 124.1637534 85.34351621 126.07659992 86.28320312 127.98950195 C86.92250435 129.30218172 87.56133797 130.61508932 88.19970703 131.92822266 C91.92640148 139.58050417 95.68251991 147.21980557 99.58618164 154.78369141 C101.72070312 158.9653563 101.72070312 158.9653563 101.72070312 161.17700195 C86.21070313 161.17700195 70.70070313 161.17700195 54.72070312 161.17700195 C50.30982775 151.72512615 45.91293429 142.27761004 41.63842773 132.76513672 C41.05745779 131.47400027 40.47471191 130.18366176 39.89038086 128.89404297 C39.02941687 126.99387868 38.17330507 125.09159899 37.31835938 123.1887207 C36.56824585 121.52522583 36.56824585 121.52522583 35.80297852 119.828125 C34.72070312 117.17700195 34.72070312 117.17700195 34.72070312 115.17700195 C26.47070312 115.17700195 18.22070312 115.17700195 9.72070312 115.17700195 C9.39070313 118.14700195 9.06070313 121.11700195 8.72070312 124.17700195 C8.07957281 127.19143047 7.40468511 130.16392141 6.65429688 133.1496582 C6.47838013 133.867948 6.30246338 134.58623779 6.12121582 135.32629395 C5.47308941 137.96556298 4.81509501 140.60240091 4.15820312 143.23950195 C2.69382812 149.15887695 1.22945313 155.07825195 -0.27929688 161.17700195 C-14.79929687 161.17700195 -29.31929688 161.17700195 -44.27929688 161.17700195 C-42.03323733 147.70064469 -42.03323733 147.70064469 -40.61523438 142.05200195 C-40.30183105 140.78678711 -39.98842773 139.52157227 -39.66552734 138.21801758 C-39.41872223 137.23248901 -39.41872223 137.23248901 -39.16693115 136.22705078 C-35.96431692 123.41964431 -32.98415117 110.57150895 -30.15429688 97.67700195 C-27.93461675 87.56935584 -25.67380199 77.48033729 -23.21679688 67.42700195 C-20.90958193 57.97739742 -18.78112912 48.49445223 -16.71679688 38.98950195 C-16.56933014 38.31092133 -16.4218634 37.6323407 -16.26992798 36.93319702 C-15.68821005 34.25591458 -15.10670848 31.57858524 -14.52546692 28.90119934 C-13.17288862 22.67584917 -11.80050701 16.45520726 -10.40429688 10.23950195 C-10.20118896 9.32209229 -9.99808105 8.40468262 -9.78881836 7.45947266 C-8.09013103 -0.05929528 -7.30834244 0.02702688 0 0 Z " fill="white" transform="translate(463.279296875,173.822998046875)"/>
    <path d="M0 0 C14.85 0 29.7 0 45 0 C43.68 5.61 42.36 11.22 41 17 C39.90665335 21.99815613 38.82290257 26.99751147 37.75 32 C34.80843457 45.62564246 31.59970435 59.17676048 28.2696991 72.7122345 C27.50929621 75.80721926 26.75521931 78.90374698 26 82 C25.70794678 83.17731689 25.41589355 84.35463379 25.11499023 85.56762695 C22.85374408 94.92355811 20.49688212 105.52265278 24.6875 114.6875 C28.05038795 120.08213275 32.43983425 122.65659176 38.41796875 124.4609375 C48.89578518 126.64843927 59.69642574 124.90714758 68.8125 119.3125 C88.04953318 105.2876398 89.74051542 73.51236149 94.38525391 51.95629883 C96.43468733 42.4622265 98.61967808 33.00762996 100.95898438 23.58032227 C102.88641474 15.74288785 104.41124403 7.94377984 106 0 C120.52 0 135.04 0 150 0 C148.83685228 6.97888633 147.70102955 13.79188 146.08203125 20.6484375 C145.81499893 21.7998246 145.81499893 21.7998246 145.54257202 22.97447205 C144.96937934 25.44214433 144.39099106 27.90856501 143.8125 30.375 C143.4095722 32.10563379 143.00698872 33.83634777 142.60473633 35.56713867 C141.59709859 39.89870374 140.58522357 44.22926356 139.57141113 48.55938721 C139.0337791 50.8557226 138.49671728 53.15219025 137.95996094 55.44873047 C137.71675865 56.48924561 137.71675865 56.48924561 137.46864319 57.55078125 C137.15443494 58.89548184 136.8403354 60.24020784 136.52635193 61.58496094 C135.79174471 64.73068204 135.0547423 67.87580216 134.3137207 71.02001953 C133.12613378 76.07448411 131.95330422 81.12516002 130.92578125 86.21484375 C125.94554553 110.8099025 115.19578193 134.21111142 94.16015625 149.00390625 C72.30423608 162.8090672 44.32397617 167.17366689 18.89282227 161.92382812 C5.76234785 158.55017856 -7.64664185 152.00826385 -15.6171875 140.70703125 C-26.39599654 122.17896008 -23.66743154 102.90889635 -19 83 C-18.47385775 80.7174711 -17.94782238 78.43491756 -17.421875 76.15234375 C-16.39845919 71.73484818 -15.36654366 67.31948948 -14.32505798 62.90621948 C-12.29013184 54.28224242 -10.31918746 45.6448484 -8.375 37 C-8.08641113 35.71754395 -7.79782227 34.43508789 -7.50048828 33.11376953 C-6.93718063 30.60957298 -6.37402545 28.10534213 -5.81103516 25.60107422 C-3.88834331 17.06413722 -1.94189833 8.53258355 0 0 Z " fill="white" transform="translate(118,174)"/>
    <path d="M0 0 C5.53328885 4.72516248 9.2737972 9.80252829 13 16 C7.67801567 20.34743915 2.34368818 24.67927001 -3 29 C-3.67691895 29.54881836 -4.35383789 30.09763672 -5.05126953 30.66308594 C-6.92463245 32.1780786 -8.80479277 33.68414423 -10.6875 35.1875 C-11.25033691 35.64423096 -11.81317383 36.10096191 -12.39306641 36.5715332 C-15.4583077 39.00292143 -18.27977267 40.76452562 -22 42 C-22.35191406 41.49210937 -22.70382812 40.98421875 -23.06640625 40.4609375 C-29.57121884 31.39156433 -35.78887378 26.2295573 -47 24 C-62.39040431 22.48108519 -75.7326709 25.96686094 -88.17578125 35.41015625 C-99.48099795 45.77718069 -106.36201212 60.93742484 -107.3203125 76.1875 C-107.7220826 86.68345356 -106.52149583 94.82761171 -99.875 103.3125 C-94.25952371 109.30395851 -86.67444844 112.72627104 -78.53125 113.203125 C-63.26283195 113.50131403 -51.11216694 110.81160633 -39.6875 100.1875 C-38.88699219 99.39730469 -38.08648437 98.60710937 -37.26171875 97.79296875 C-35 96 -35 96 -31 96 C-29.01785419 97.57251859 -27.31171122 99.10381636 -25.54296875 100.890625 C-25.03574783 101.39164734 -24.52852692 101.89266968 -24.00593567 102.40887451 C-22.93783435 103.46987816 -21.87484039 104.53604467 -20.81665039 105.60693359 C-19.19144273 107.2460236 -17.54366768 108.85968958 -15.89257812 110.47265625 C-14.85792258 111.50636078 -13.82466959 112.54147147 -12.79296875 113.578125 C-12.29725876 114.06057678 -11.80154877 114.54302856 -11.29081726 115.0401001 C-9.93432617 116.43457031 -9.93432617 116.43457031 -8 119 C-8.20225492 124.02899596 -12.5409263 127.06649701 -15.953125 130.34375 C-33.12978662 145.71116638 -55.02352258 151.4050742 -77.625 151.375 C-78.28441589 151.37478851 -78.94383179 151.37457703 -79.62322998 151.37435913 C-90.3016379 151.34023403 -99.90167681 150.46034367 -110 147 C-111.09957031 146.62617188 -112.19914062 146.25234375 -113.33203125 145.8671875 C-127.45335291 140.50286154 -139.92710888 130.48991601 -146.75390625 116.875 C-155.97040605 95.61059921 -155.70084255 71.33807355 -147.421875 49.796875 C-136.87444998 23.76415989 -117.75162382 4.10977945 -92.09716797 -7.14794922 C-85.899792 -9.66585866 -79.49371538 -11.4323202 -73 -13 C-71.99839844 -13.24621094 -70.99679687 -13.49242187 -69.96484375 -13.74609375 C-46.4295219 -18.54584293 -19.30393266 -14.87094486 0 0 Z " fill="white" transform="translate(418,186)"/>
    <path d="M0 0 C14.52 0 29.04 0 44 0 C41.69262279 11.53688604 39.40248925 22.92325638 36.5625 34.3125 C34.2945153 43.56889596 32.11383703 52.83044561 30.12084961 62.1496582 C27.84514127 72.77893621 25.48487934 83.38915569 23.125 94 C22.90765198 94.97759277 22.69030396 95.95518555 22.46636963 96.96240234 C17.71560839 118.32472588 12.92089724 139.67611196 8 161 C-6.52 161 -21.04 161 -36 161 C-33.4447204 148.8624219 -30.87718467 136.73275083 -28.1875 124.625 C-28.01736389 123.85752441 -27.84722778 123.09004883 -27.67193604 122.29931641 C-25.0846043 110.64448533 -22.34503569 99.03613606 -19.50244141 87.44067383 C-17.27489183 78.29402819 -15.27913279 69.11047028 -13.34594727 59.89770508 C-11.01678076 48.88183604 -8.43320161 37.93080971 -5.80297852 26.98364258 C-5.55780487 25.95679855 -5.55780487 25.95679855 -5.30767822 24.90921021 C-4.86726812 23.06548386 -4.42364178 21.22252658 -3.97973633 19.37963867 C-2.54007147 12.94401747 -1.29332391 6.46661955 0 0 Z " fill="white" transform="translate(741,174)"/>
    <path d="M0 0 C14.19 0 28.38 0 43 0 C41.87684929 11.23150713 41.87684929 11.23150713 40.87109375 15.14453125 C40.53174805 16.50191406 40.53174805 16.50191406 40.18554688 17.88671875 C39.93869141 18.85222656 39.69183594 19.81773437 39.4375 20.8125 C36.74386176 31.66686446 34.33175479 42.56338228 32 53.5 C29.76396436 63.96823289 27.48493839 74.41454646 24.9375 84.8125 C22.67346416 94.05418238 20.57981955 103.32679442 18.5625 112.625 C17.97797599 115.31643046 17.39335346 118.00783949 16.80859375 120.69921875 C16.66233047 121.37247192 16.5160672 122.0457251 16.3653717 122.73937988 C14.79710491 129.94871618 13.20481441 137.15259683 11.59152222 144.35198975 C11.28181415 145.73648835 10.97347289 147.12129345 10.66653442 148.50640869 C10.24216317 150.42042448 9.81262321 152.3332921 9.3828125 154.24609375 C9.13934082 155.33591553 8.89586914 156.4257373 8.64501953 157.54858398 C8 160 8 160 7 161 C5.64905018 161.09268999 4.29332909 161.11747326 2.93920898 161.11352539 C2.07839218 161.11344986 1.21757538 161.11337433 0.33067322 161.11329651 C-0.60473801 161.10813522 -1.54014923 161.10297394 -2.50390625 161.09765625 C-3.45692123 161.0962413 -4.40993622 161.09482635 -5.39183044 161.09336853 C-8.44875165 161.08775152 -11.50560077 161.07519616 -14.5625 161.0625 C-16.62955624 161.05748719 -18.69661362 161.05292391 -20.76367188 161.04882812 C-25.84247588 161.03777656 -30.9212257 161.02050055 -36 161 C-35.75475586 159.90220215 -35.50951172 158.8044043 -35.25683594 157.67333984 C-33.04424129 147.75262307 -30.87281263 137.82389603 -28.73648071 127.88650513 C-23.40432865 103.09890531 -17.92795216 78.34290709 -12.28125 53.625 C-11.27342784 49.21008873 -10.2758326 44.7929092 -9.28125 40.375 C-9.05345604 39.36370781 -9.05345604 39.36370781 -8.82106018 38.33198547 C-8.07505277 35.01994248 -7.32973886 31.70774827 -6.58569336 28.39526367 C-4.45011379 18.91463174 -2.22614182 9.46110272 0 0 Z " fill="white" transform="translate(679,174)"/>
    <path d="M0 0 C14.19 0 28.38 0 43 0 C41.87663135 10.11031783 41.87663135 10.11031783 40.80078125 14.36328125 C40.56431885 15.3174292 40.32785645 16.27157715 40.08422852 17.25463867 C39.7022229 18.76828003 39.7022229 18.76828003 39.3125 20.3125 C37.07131291 29.40780953 34.99056348 38.52078744 33.0625 47.6875 C31.00779022 57.42374635 28.84104318 67.12616539 26.5625 76.8125 C22.15595822 95.55482964 17.85085831 114.31837283 13.81640625 133.14453125 C13.63338455 133.99735184 13.45036285 134.85017242 13.26179504 135.72883606 C12.36107726 139.92881896 11.46504651 144.12971832 10.57641602 148.33227539 C10.25157031 149.85435194 9.9266243 151.37640709 9.6015625 152.8984375 C9.45396988 153.60414383 9.30637726 154.30985016 9.15431213 155.03694153 C8.11330452 159.88669548 8.11330452 159.88669548 7 161 C5.64905018 161.09268999 4.29332909 161.11747326 2.93920898 161.11352539 C2.07839218 161.11344986 1.21757538 161.11337433 0.33067322 161.11329651 C-0.60473801 161.10813522 -1.54014923 161.10297394 -2.50390625 161.09765625 C-3.45692123 161.0962413 -4.40993622 161.09482635 -5.39183044 161.09336853 C-8.44875165 161.08775152 -11.50560077 161.07519616 -14.5625 161.0625 C-16.62955624 161.05748719 -18.69661362 161.05292391 -20.76367188 161.04882812 C-25.84247588 161.03777656 -30.9212257 161.02050055 -36 161 C-34.79094876 153.14159718 -33.2424143 145.46068383 -31.3125 137.75 C-28.96033565 128.1542139 -26.77176805 118.53229227 -24.6875 108.875 C-21.9322034 96.11956444 -19.02260314 83.40501898 -16.05862427 70.69659424 C-12.51529204 55.47760451 -9.21318186 40.21168861 -6.00634766 24.91845703 C-5.82720825 24.06976044 -5.64806885 23.22106384 -5.46350098 22.34664917 C-5.13360339 20.78305506 -4.80625485 19.21891937 -4.4822998 17.65408325 C-3.21833321 11.67380454 -1.61732455 5.93019002 0 0 Z " fill="white" transform="translate(617,174)"/>
    <path d="M0 0 C1.89588867 -0.05607422 1.89588867 -0.05607422 3.83007812 -0.11328125 C11.24711501 -0.18307041 16.8517216 0.13353091 22.4375 5.375 C25.34493345 9.37272099 26.03169942 13.09017932 25.8515625 17.9375 C24.82802539 23.96285055 21.91020554 29.46430265 17.25 33.4375 C14.4375 35.375 14.4375 35.375 12.4375 36.375 C14.31506574 42.75339707 16.30441623 49.0773241 18.4375 55.375 C13.8175 55.375 9.1975 55.375 4.4375 55.375 C-0.78571429 43.1875 -0.78571429 43.1875 -1.5625 38.375 C-5.0275 38.87 -5.0275 38.87 -8.5625 39.375 C-8.83964844 40.44621094 -9.11679687 41.51742187 -9.40234375 42.62109375 C-9.76804924 44.01827627 -10.13394446 45.41540915 -10.5 46.8125 C-10.68240234 47.51955078 -10.86480469 48.22660156 -11.05273438 48.95507812 C-12.44921875 54.26171875 -12.44921875 54.26171875 -13.5625 55.375 C-15.74889453 55.44758946 -17.93750389 55.45873783 -20.125 55.4375 C-21.92130859 55.42396484 -21.92130859 55.42396484 -23.75390625 55.41015625 C-24.68074219 55.39855469 -25.60757813 55.38695312 -26.5625 55.375 C-25.2843948 47.7694393 -23.62380068 40.3377871 -21.6875 32.875 C-19.49213941 24.28910398 -17.48704693 15.69417505 -15.76806641 7 C-13.90234659 -2.31012661 -8.62294327 0.09471031 0 0 Z " fill="white" transform="translate(620.5625,363.625)"/>
    <path d="M0 0 C2.5625 1.5625 2.5625 1.5625 3.5625 2.5625 C3.8925 1.5725 4.2225 0.5825 4.5625 -0.4375 C8.8525 -0.4375 13.1425 -0.4375 17.5625 -0.4375 C15.95175788 7.72514967 14.24067619 15.86413877 12.5 24 C12.0968457 25.89782227 12.0968457 25.89782227 11.68554688 27.83398438 C11.42708984 29.04248047 11.16863281 30.25097656 10.90234375 31.49609375 C10.66894287 32.58978271 10.43554199 33.68347168 10.19506836 34.81030273 C9.5625 37.5625 9.5625 37.5625 8.5625 40.5625 C4.6025 40.5625 0.6425 40.5625 -3.4375 40.5625 C-3.7675 39.9025 -4.0975 39.2425 -4.4375 38.5625 C-4.99566406 39.04976563 -5.55382812 39.53703125 -6.12890625 40.0390625 C-9.99315287 42.58907296 -13.96265627 42.09366031 -18.4375 41.5625 C-23.16153852 39.6112667 -26.16221109 36.11307782 -28.4375 31.5625 C-29.45892807 20.70617884 -28.0274095 13.11870624 -21.0625 4.6875 C-14.22926487 -0.84416653 -8.75114735 -3.65957071 0 0 Z " fill="white" transform="translate(397.4375,377.4375)"/>
    <path d="M0 0 C2.125 1.125 2.125 1.125 4.125 3.125 C4.455 2.135 4.785 1.145 5.125 0.125 C9.415 0.125 13.705 0.125 18.125 0.125 C15.7763438 13.94910798 12.47356874 27.51398921 9.125 41.125 C5.165 41.125 1.205 41.125 -2.875 41.125 C-3.205 40.465 -3.535 39.805 -3.875 39.125 C-4.679375 39.62 -5.48375 40.115 -6.3125 40.625 C-10.70116685 42.47285973 -14.18577819 43.13448525 -18.875 42.125 C-23.59574529 39.44275836 -26.2453133 36.30967769 -27.875 31.125 C-29.2008799 21.6271103 -27.44073622 13.95218273 -21.875 6.125 C-15.61346796 -0.0539883 -8.64941836 -2.63243167 0 0 Z " fill="white" transform="translate(530.875,376.875)"/>
    <path d="M0 0 C1.79244141 0.01740234 1.79244141 0.01740234 3.62109375 0.03515625 C5.41740234 0.04869141 5.41740234 0.04869141 7.25 0.0625 C8.17683594 0.07410156 9.10367188 0.08570313 10.05859375 0.09765625 C9.47082061 5.04981389 8.43624509 9.74620164 7.19165039 14.57299805 C3.79151078 27.17323995 3.79151078 27.17323995 4.05859375 40.09765625 C6.64704223 42.68610473 8.45743042 42.33643067 11.98828125 42.36328125 C14.44471377 42.04811632 15.94219554 41.38553898 18.05859375 40.09765625 C22.68712878 33.44236165 23.70109068 24.48378857 25.24609375 16.72265625 C25.75916568 14.21458751 26.27343051 11.70676242 26.7890625 9.19921875 C27.00973389 8.09916504 27.23040527 6.99911133 27.45776367 5.86572266 C28.05859375 3.09765625 28.05859375 3.09765625 29.05859375 0.09765625 C33.34859375 0.09765625 37.63859375 0.09765625 42.05859375 0.09765625 C37.69135327 40.20981066 37.69135327 40.20981066 24.33984375 51.55859375 C19.24552046 55.1050265 14.40843502 55.5838161 8.37109375 55.66015625 C7.64631836 55.67481934 6.92154297 55.68948242 6.17480469 55.70458984 C1.06057406 55.6071871 -1.86656222 54.39633952 -5.94140625 51.09765625 C-10.55709273 45.98297664 -11.25376592 42.14685666 -11.19091797 35.45410156 C-10.75129181 29.54022636 -9.37737303 23.83235543 -8.00561523 18.078125 C-7.49710674 15.94412149 -7.00600899 13.80664858 -6.51757812 11.66796875 C-3.84575193 0.12768101 -3.84575193 0.12768101 0 0 Z " fill="white" transform="translate(106.94140625,363.90234375)"/>
    <path d="M0 0 C2.58768574 1.70141705 4.25026788 3.57568036 5.84765625 6.21484375 C5.84765625 8.21484375 5.84765625 8.21484375 4.203125 9.94140625 C3.48769531 10.56789063 2.77226562 11.194375 2.03515625 11.83984375 C1.32746094 12.47148437 0.61976563 13.103125 -0.109375 13.75390625 C-2.15234375 15.21484375 -2.15234375 15.21484375 -5.15234375 15.21484375 C-6.52667285 13.92380732 -7.86130732 12.58917285 -9.15234375 11.21484375 C-12.27123053 9.65540036 -14.69775825 9.931681 -18.15234375 10.21484375 C-23.51179745 12.16881124 -26.38167173 15.20632125 -29.15234375 20.21484375 C-30.79340323 25.13802219 -30.7471815 30.08263896 -30.15234375 35.21484375 C-28.39834452 38.63735867 -28.39834452 38.63735867 -25.15234375 40.21484375 C-19.40796142 40.94428912 -16.19531672 40.19478233 -11.15234375 37.21484375 C-9.83234375 36.55484375 -8.51234375 35.89484375 -7.15234375 35.21484375 C-5.17234375 37.52484375 -3.19234375 39.83484375 -1.15234375 42.21484375 C-4.07859708 48.06735041 -8.20330199 50.69524959 -14.15234375 53.21484375 C-16.88321444 53.52606207 -19.308115 53.69287644 -22.02734375 53.65234375 C-22.73479736 53.64477051 -23.44225098 53.63719727 -24.17114258 53.62939453 C-30.6396899 53.42508537 -34.97301161 52.21343866 -39.6640625 47.7890625 C-45.36513615 41.46724157 -45.67594755 35.12563461 -45.47265625 26.953125 C-45.0475226 21.99150424 -43.71894647 18.43013224 -41.15234375 14.21484375 C-40.57484375 13.18359375 -39.99734375 12.15234375 -39.40234375 11.08984375 C-29.77624395 -1.21017266 -14.78453573 -7.5398449 0 0 Z " fill="white" transform="translate(500.15234375,365.78515625)"/>
    <path d="M0 0 C4.56430938 4.92464959 5.14001774 8.112138 5.0625 14.625 C5.041875 17.05875 5.02125 19.4925 5 22 C-4.24 22 -13.48 22 -23 22 C-22.01 23.98 -21.02 25.96 -20 28 C-18.27119018 28.05449838 -16.54187288 28.09301688 -14.8125 28.125 C-13.36810547 28.15980469 -13.36810547 28.15980469 -11.89453125 28.1953125 C-8.87187222 27.9913544 -6.73230015 27.26874632 -4 26 C-0.93857842 31.38810198 -0.93857842 31.38810198 -1.20703125 34.0625 C-2.40627426 36.9926701 -4.63408711 37.9687257 -7.4140625 39.23828125 C-13.6611626 41.07843913 -20.33528629 40.85651512 -26.5 38.875 C-30.4614221 35.90393342 -33.4035406 32.78937819 -35 28 C-35.8968503 19.58241929 -34.99671203 12.95455832 -30 6 C-21.70027949 -3.01925273 -11.13099862 -6.4559792 0 0 Z " fill="white" transform="translate(293,379)"/>
    <path d="M0 0 C3.01636951 2.20320077 4.22662044 3.75013762 5.6953125 7.23828125 C6.63066182 18.36758261 6.63066182 18.36758261 4.6953125 22.23828125 C-4.2146875 22.23828125 -13.1246875 22.23828125 -22.3046875 22.23828125 C-21.3146875 24.21828125 -20.3246875 26.19828125 -19.3046875 28.23828125 C-11.56130114 28.6278666 -11.56130114 28.6278666 -4.3046875 26.23828125 C-0.25366709 31.63964179 -0.25366709 31.63964179 -0.48046875 34.30078125 C-1.71860204 37.21127468 -3.93601088 38.20574481 -6.71875 39.4765625 C-12.9658501 41.31672038 -19.63997379 41.09479637 -25.8046875 39.11328125 C-29.41868984 36.4027795 -32.26208913 33.32347798 -34.3046875 29.23828125 C-35.19216273 20.51566753 -34.55493465 13.43212951 -29.3046875 6.23828125 C-21.29979835 -2.44444126 -10.90117941 -6.42154495 0 0 Z " fill="white" transform="translate(680.3046875,378.76171875)"/>
    <path d="M0 0 C3.21334639 2.0924116 5.28511561 3.98286187 6.15625 7.80859375 C6.30124217 18.84612269 3.16550721 30.31597836 -0.3125 40.75 C-4.2725 40.75 -8.2325 40.75 -12.3125 40.75 C-11.84833048 33.69462336 -10.85093437 27.2835804 -8.93359375 20.4765625 C-8.31999162 17.78288774 -8.12292561 15.50125908 -8.3125 12.75 C-9.47627902 11.36857444 -9.47627902 11.36857444 -12.6875 11.5 C-16.14898096 11.4189269 -16.14898096 11.4189269 -17.9140625 12.90234375 C-23.48368866 20.26109563 -24.52419847 32.89790741 -26.3125 41.75 C-30.6025 41.75 -34.8925 41.75 -39.3125 41.75 C-38.66135507 36.82829723 -37.78277298 32.02571898 -36.71875 27.171875 C-36.56716431 26.47862122 -36.41557861 25.78536743 -36.25939941 25.07110596 C-35.94124003 23.61875137 -35.62184799 22.1666663 -35.30126953 20.71484375 C-34.81092808 18.49287688 -34.32510236 16.26995684 -33.83984375 14.046875 C-31.45298061 3.17144183 -31.45298061 3.17144183 -30.3125 -0.25 C-26.3525 -0.25 -22.3925 -0.25 -18.3125 -0.25 C-17.9825 0.41 -17.6525 1.07 -17.3125 1.75 C-16.4875 1.255 -15.6625 0.76 -14.8125 0.25 C-9.45903871 -2.04434055 -5.43999489 -2.05282826 0 0 Z " fill="white" transform="translate(726.3125,377.25)"/>
    <path d="M0 0 C3.0622938 1.73615402 5.40116508 3.80233017 7 7 C8.4448759 18.97182892 4.88851255 30.49753039 2 42 C-2.29 42 -6.58 42 -11 42 C-10.56574233 36.78890795 -9.79874797 31.99081205 -8.4375 26.9375 C-7.15942769 22.09199283 -6.71204717 17.99118233 -7 13 C-9.74961511 12.05392193 -9.74961511 12.05392193 -13 12 C-19.05860951 16.17769954 -19.74496732 22.32179984 -21.25 29.1875 C-21.75368036 31.36884296 -22.25881473 33.54985086 -22.765625 35.73046875 C-22.97993164 36.69364014 -23.19423828 37.65681152 -23.41503906 38.64916992 C-24 41 -24 41 -25 43 C-29.29 43 -33.58 43 -38 43 C-36.48368589 35.13650172 -34.73616115 27.3353851 -32.91333008 19.53808594 C-32.43203718 17.47660154 -31.9551838 15.41412056 -31.47851562 13.3515625 C-31.17214122 12.03639629 -30.86551025 10.72128981 -30.55859375 9.40625 C-30.28329834 8.22353516 -30.00800293 7.04082031 -29.72436523 5.82226562 C-29 3 -29 3 -28 1 C-24.04 1 -20.08 1 -16 1 C-16.33 1.99 -16.66 2.98 -17 4 C-15.865625 3.34 -14.73125 2.68 -13.5625 2 C-9.028866 -0.23873254 -4.99505374 -1.09669999 0 0 Z " fill="white" transform="translate(183,376)"/>
    <path d="M0 0 C-1.20842856 4.43090471 -2.51668565 6.98112756 -6 10 C-6.804375 9.67 -7.60875 9.34 -8.4375 9 C-12.73804795 7.79282865 -16.56966181 7.82278647 -21 8 C-20.86642898 9.98112959 -20.86642898 9.98112959 -20 12 C-17.88132839 12.96423117 -17.88132839 12.96423117 -15.3125 13.4375 C-10.25591616 14.80865401 -7.37728367 15.91170924 -4 20 C-3.04959949 24.32072836 -3.73839215 28.0283137 -4.875 32.25 C-8.16060646 36.5019613 -11.90088399 38.41961173 -17 40 C-24.94663641 41.01855316 -31.62752975 39.99897095 -39 37 C-39 31.95749572 -37.59750368 30.22094347 -35 26 C-34.05125 26.495 -33.1025 26.99 -32.125 27.5 C-27.48412567 29.52978692 -22.97609428 29.27033108 -18 29 C-17.34 27.68 -16.68 26.36 -16 25 C-16.80824219 24.82984375 -17.61648438 24.6596875 -18.44921875 24.484375 C-29.21869907 22.04208031 -29.21869907 22.04208031 -33 18 C-34.62655106 14.74689788 -34.54031863 11.51524941 -34 8 C-32.16048698 3.54030258 -29.2341659 0.78485227 -25 -1.4375 C-16.81209453 -4.61407871 -7.65242038 -4.27111835 0 0 Z " fill="white" transform="translate(368,379)"/>
    <path d="M0 0 C3.96 0 7.92 0 12 0 C13.15927528 2.31855055 13.39799472 4.22030973 13.75390625 6.7890625 C13.88603516 7.73007812 14.01816406 8.67109375 14.15429688 9.640625 C14.28900391 10.62546875 14.42371094 11.6103125 14.5625 12.625 C14.77036133 14.11386719 14.77036133 14.11386719 14.98242188 15.6328125 C15.32474895 18.08812392 15.66380439 20.54384277 16 23 C17.98003973 19.54216583 19.95888344 16.08364869 21.9375 12.625 C22.78344727 11.14773438 22.78344727 11.14773438 23.64648438 9.640625 C24.18466797 8.69960938 24.72285156 7.75859375 25.27734375 6.7890625 C26.02359009 5.48509521 26.02359009 5.48509521 26.78491211 4.15478516 C27.55581337 2.78770167 28.29811596 1.40376807 29 0 C33.62 0 38.24 0 43 0 C38.97141099 7.46259712 34.82068795 14.82806619 30.5 22.125 C29.95730469 23.04925781 29.41460937 23.97351563 28.85546875 24.92578125 C27.77647069 26.75157987 26.68040706 28.56741533 25.56640625 30.37207031 C23.96646514 32.96600361 23.96646514 32.96600361 22.71484375 35.68261719 C21.33084746 38.3235713 20.30874283 40.10026389 18 42 C13.57081006 42.7525387 9.44604585 42.53431708 5 42 C4.28261537 36.98364982 3.57070974 31.96656323 2.86376953 26.94873047 C2.62274498 25.2434413 2.38025026 23.53835923 2.13623047 21.83349609 C1.78482306 19.37651284 1.43878878 16.9188222 1.09375 14.4609375 C0.9843811 13.70444916 0.87501221 12.94796082 0.7623291 12.16854858 C0.66222534 11.4482547 0.56212158 10.72796082 0.45898438 9.98583984 C0.37015991 9.35962738 0.28133545 8.73341492 0.18981934 8.08822632 C-0.0543143 5.40248154 0 2.6968178 0 0 Z " fill="white" transform="translate(219,377)"/>
    <path d="M0 0 C4.29 0 8.58 0 13 0 C12.34 3.63 11.68 7.26 11 11 C13.97 11 16.94 11 20 11 C19.69217504 12.64671412 19.37860766 14.29235576 19.0625 15.9375 C18.80146484 17.31228516 18.80146484 17.31228516 18.53515625 18.71484375 C18 21 18 21 17 22 C15.48530552 22.23192865 13.96245438 22.41215238 12.4375 22.5625 C11.19806641 22.68818359 11.19806641 22.68818359 9.93359375 22.81640625 C9.29550781 22.87699219 8.65742187 22.93757813 8 23 C7.49490792 25.24886238 6.99610821 27.49913869 6.5 29.75 C6.2215625 31.00296875 5.943125 32.2559375 5.65625 33.546875 C4.87553097 37.06912245 4.87553097 37.06912245 5 41 C7.31 41 9.62 41 12 41 C13.60725635 44.21451269 13.05748185 47.43612536 13 51 C8.22109959 53.82236236 3.39820762 53.52059866 -2 53 C-5.97918738 51.37584189 -7.35449346 49.87513229 -9 46 C-9.86898016 37.31019838 -7.28298342 29.30639055 -5 21 C-6.65 21 -8.3 21 -10 21 C-9.54177532 17.53058454 -9.10868317 14.32604951 -8 11 C-6.02 11 -4.04 11 -2 11 C-1.34 7.37 -0.68 3.74 0 0 Z " fill="white" transform="translate(747,366)"/>
    <path d="M0 0 C1.65322266 0.01740234 1.65322266 0.01740234 3.33984375 0.03515625 C4.44457031 0.04417969 5.54929687 0.05320312 6.6875 0.0625 C7.54214844 0.07410156 8.39679688 0.08570313 9.27734375 0.09765625 C8.58654941 8.42403067 6.78704961 16.46175458 4.96484375 24.59765625 C4.64742053 26.03053595 4.33028304 27.46347898 4.01342773 28.89648438 C1.85091287 38.64958273 -0.36857097 48.38888218 -2.72265625 58.09765625 C-7.01265625 58.09765625 -11.30265625 58.09765625 -15.72265625 58.09765625 C-14.95595756 50.15465781 -13.14189064 42.43598541 -11.41015625 34.66015625 C-11.09215004 33.2219537 -10.77427944 31.78372115 -10.45654297 30.34545898 C-3.76787484 0.13514616 -3.76787484 0.13514616 0 0 Z " fill="white" transform="translate(429.72265625,360.90234375)"/>
    <path d="M0 0 C-0.66 3.96 -1.32 7.92 -2 12 C-4.47395833 12.32552083 -6.94791667 12.65104167 -9.421875 12.9765625 C-13.04524847 14.41493197 -14.48311575 16.5495513 -16 20 C-17.14321671 23.74880411 -17.96271458 27.5376025 -18.75 31.375 C-18.97042969 32.39722656 -19.19085937 33.41945313 -19.41796875 34.47265625 C-19.95678687 36.97933183 -20.47996921 39.48935956 -21 42 C-25.29 42 -29.58 42 -34 42 C-33.5442838 32.7337705 -31.06184075 24.16881799 -28.61669922 15.27197266 C-27.33084539 10.5347772 -26.17590903 5.76552609 -25 1 C-21.04 1 -17.08 1 -13 1 C-13 1.99 -13 2.98 -13 4 C-11.96875 3.34 -10.9375 2.68 -9.875 2 C-6.13218634 -0.39540075 -5.08393274 0 0 0 Z " fill="white" transform="translate(582,376)"/>
    <path d="M0 0 C-0.30893932 1.6256807 -0.6222695 3.25052748 -0.9375 4.875 C-1.11152344 5.77992188 -1.28554688 6.68484375 -1.46484375 7.6171875 C-2 10 -2 10 -3 12 C-5.21297471 12.52518873 -7.42410779 12.82818043 -9.67578125 13.14453125 C-13.0912565 14.40165576 -14.09393614 15.89073333 -16 19 C-17.13712547 22.32421254 -17.92301782 25.69834995 -18.6875 29.125 C-19.10739161 30.91943039 -19.52793646 32.71370809 -19.94921875 34.5078125 C-20.12799561 35.29816895 -20.30677246 36.08852539 -20.4909668 36.90283203 C-21 39 -21 39 -22 42 C-26.29 42 -30.58 42 -35 42 C-32.10113713 28.31092532 -29.04479113 14.65721848 -26 1 C-22.04 1 -18.08 1 -14 1 C-13.67 1.99 -13.34 2.98 -13 4 C-12.154375 3.34 -11.30875 2.68 -10.4375 2 C-6.56563053 -0.25272405 -4.39721203 -0.35177696 0 0 Z " fill="white" transform="translate(334,376)"/>
    <path d="M0 0 C3.96 0 7.92 0 12 0 C11.40763669 8.56458618 9.57547256 16.62420607 7.5 24.9375 C7.17518604 26.26352622 6.85096343 27.58969743 6.52734375 28.91601562 C4.1869649 38.43910531 4.1869649 38.43910531 3 42 C-1.29 42 -5.58 42 -10 42 C-8.01246963 31.56268969 -5.89346067 21.18372172 -3.3125 10.875 C-3.09827393 10.01680664 -2.88404785 9.15861328 -2.66333008 8.27441406 C-1.13587974 2.27175947 -1.13587974 2.27175947 0 0 Z " fill="white" transform="translate(202,377)"/>
    <path d="M0 0 C2 2 2 2 2.4375 5.875 C2.34642458 9.21443217 2.15043161 9.82302163 -0.125 12.5 C-3.49037356 14.25584708 -5.26015491 14.63656938 -9 14 C-11.4375 12.4375 -11.4375 12.4375 -13 10 C-13.07566225 5.76291397 -12.63286075 3.74454206 -9.875 0.5 C-6.1136544 -1.46244118 -4.04480251 -1.0684384 0 0 Z " fill="white" transform="translate(216,358)"/>
    <path d="M0 0 C4.83799361 -0.09951569 9.67538025 -0.17177037 14.51416016 -0.21972656 C16.1571695 -0.23973571 17.80010859 -0.26695213 19.44287109 -0.30175781 C21.81625788 -0.35075305 24.18869649 -0.37307504 26.5625 -0.390625 C27.64893799 -0.42159271 27.64893799 -0.42159271 28.75732422 -0.45318604 C35.68182752 -0.45617417 40.58501783 2.13845125 46 6.3125 C49.87292194 11.47639593 48.78114631 18.97945769 48 25 C45.9331381 31.44642389 41.74524664 36.48708194 36 40 C25.91759682 44.33388656 16.41357487 44.49865258 5.6875 44.25 C4.15692478 44.2298758 2.6263236 44.21163564 1.09570312 44.1953125 C-2.60341686 44.15185089 -6.30153394 44.08316191 -10 44 C-9.26274753 36.72637499 -7.72125283 29.69113154 -6.125 22.5625 C-5.74021484 20.7980957 -5.74021484 20.7980957 -5.34765625 18.99804688 C-3.90406093 12.5091222 -2.23652303 6.26092525 0 0 Z " fill="black" transform="translate(492,210)"/>
    <path d="M0 0 C2.21826181 1.62846514 2.91319376 2.54563579 3.43359375 5.26953125 C3.44243732 11.02669378 2.94772635 14.48831274 -1 19 C-4.47042703 21.31361802 -5.91834173 21.51020728 -10 21 C-12.3191541 19.22198185 -12.87669774 17.80222581 -13.31640625 14.94140625 C-13.60247995 9.46909318 -12.65276904 6.27895801 -9 2 C-5.53076119 -0.31282587 -4.07794425 -0.42478586 0 0 Z " fill="black" transform="translate(395,387)"/>
    <path d="M0 0 C3.5625 0.375 3.5625 0.375 5.5 1.9375 C7.54439939 6.62759272 6.89868739 10.36643783 5.3125 15.125 C3.59822318 18.30865696 2.78005722 19.81218649 -0.4375 21.375 C-5.58385647 22.0051661 -5.58385647 22.0051661 -8.09375 20.15234375 C-10.30995766 17.22102258 -9.89940515 14.44236998 -9.80078125 10.88671875 C-8.99716795 5.3305537 -5.59543357 0.61041094 0 0 Z " fill="black" transform="translate(525.4375,386.625)"/>
    <path d="M0 0 C1.58246707 -0.08153933 3.16616273 -0.13943557 4.75 -0.1875 C6.07257812 -0.23970703 6.07257812 -0.23970703 7.421875 -0.29296875 C10.50955135 0.05790356 11.81251892 0.81753608 14 3 C14.62789119 7.23826551 14.48189098 9.26110049 12.125 12.875 C9.56899401 15.43100599 8.78882051 15.97268627 5.1796875 16.09765625 C4.08914063 16.08605469 2.99859375 16.07445312 1.875 16.0625 C0.77929688 16.05347656 -0.31640625 16.04445313 -1.4453125 16.03515625 C-2.70988281 16.01775391 -2.70988281 16.01775391 -4 16 C-3.52417032 13.70763814 -3.04423615 11.41612791 -2.5625 9.125 C-2.29566406 7.84882813 -2.02882813 6.57265625 -1.75390625 5.2578125 C-1 2 -1 2 0 0 Z " fill="black" transform="translate(618,375)"/>
    <path d="M0 0 C1.9375 1.1875 1.9375 1.1875 3 3 C3 4.65 3 6.3 3 8 C-2.28 8 -7.56 8 -13 8 C-9.74075972 1.48151943 -7.5788138 -0.9645763 0 0 Z " fill="black" transform="translate(672,386)"/>
    <path d="M0 0 C1.875 1.1875 1.875 1.1875 3 3 C3 4.65 3 6.3 3 8 C-1.95 8 -6.9 8 -12 8 C-10.38857493 1.55429972 -6.6325375 -1.00929918 0 0 Z " fill="black" transform="translate(284,386)"/>
    <path d="M0 0 C-1.65 1.32 -3.3 2.64 -5 4 C-1.37 4.33 2.26 4.66 6 5 C6 5.66 6 6.32 6 7 C1.05 7 -3.9 7 -9 7 C-7.54408663 1.17634653 -6.06735844 -0.49194798 0 0 Z " fill="black" transform="translate(281,387)"/>
  </mask>
</defs>
<rect x="0" y="0" width="864" height="608" fill="#fff" mask="url(#m)"/>
</svg>