<svg width="630" height="557" viewBox="0 0 630 557" fill="none" xmlns="http://www.w3.org/2000/svg">
<path d="M363.325 5.06329C335.725 5.46329 151.324 53.8832 139.325 55.5633C127.325 57.2434 112.324 60.0632 91.8243 77.0632C71.3247 94.0632 58.3244 133.563 34.8248 147.063C11.3251 160.563 -3.67549 232.563 2.32477 255.563C8.32502 278.563 19.2248 288.963 40.8248 296.563C67.8248 306.063 73.3254 324.063 79.8248 338.063C86.3242 352.063 92.8254 452.563 96.3248 465.563C99.8242 478.563 113.125 513.763 148.325 536.563C192.325 565.063 301.325 555.063 336.825 552.063C365.225 549.663 396.826 531.563 415.325 514.063C433.824 496.563 428.325 492.463 456.325 470.063C494.325 448.063 507.325 434.563 551.825 402.063C587.425 376.063 612.325 328.23 620.325 307.563C625.491 293.23 633.825 251.563 625.825 199.563C615.825 134.563 549.825 48.0633 501.825 19.0633C453.825 -9.93671 397.825 4.56329 363.325 5.06329Z" fill="#D9D9D9"/>
<path d="M540.324 465.563C541.55 455.76 532.991 449.73 526.324 447.563C521.524 445.505 516.657 449.706 514.824 452.063C512.324 456.23 504.824 464.263 498.824 467.063C491.324 470.563 480.509 482.211 466.324 498.063C457.824 507.563 451.324 526.063 458.824 529.063C466.324 532.063 475.824 544.063 486.324 544.063C500.901 544.063 503.324 541.063 509.824 531.063C516.324 521.063 509.824 508.063 519.824 495.063C524.787 488.612 539.324 473.563 540.324 465.563Z" fill="#D9D9D9"/>
<path d="M363.325 5.06329C335.725 5.46329 151.324 53.8832 139.325 55.5633C127.325 57.2434 112.324 60.0632 91.8243 77.0632C71.3247 94.0632 58.3244 133.563 34.8248 147.063C11.3251 160.563 -3.67549 232.563 2.32477 255.563C8.32502 278.563 19.2248 288.963 40.8248 296.563C67.8248 306.063 73.3254 324.063 79.8248 338.063C86.3242 352.063 92.8254 452.563 96.3248 465.563C99.8242 478.563 113.125 513.763 148.325 536.563C192.325 565.063 301.325 555.063 336.825 552.063C365.225 549.663 396.826 531.563 415.325 514.063C433.824 496.563 428.325 492.463 456.325 470.063C494.325 448.063 507.325 434.563 551.825 402.063C587.425 376.063 612.325 328.23 620.325 307.563C625.491 293.23 633.825 251.563 625.825 199.563C615.825 134.563 549.825 48.0633 501.825 19.0633C453.825 -9.93671 397.825 4.56329 363.325 5.06329Z" stroke="black"/>
<path d="M540.324 465.563C541.55 455.76 532.991 449.73 526.324 447.563C521.524 445.505 516.657 449.706 514.824 452.063C512.324 456.23 504.824 464.263 498.824 467.063C491.324 470.563 480.509 482.211 466.324 498.063C457.824 507.563 451.324 526.063 458.824 529.063C466.324 532.063 475.824 544.063 486.324 544.063C500.901 544.063 503.324 541.063 509.824 531.063C516.324 521.063 509.824 508.063 519.824 495.063C524.787 488.612 539.324 473.563 540.324 465.563Z" stroke="black"/>
</svg>
