<svg width="752" height="617" viewBox="0 0 752 617" fill="none" xmlns="http://www.w3.org/2000/svg">
<path d="M51.9999 428.5C56.4999 424 46.5 414.5 41.9999 410.5C39.814 408.557 38.0089 404.059 35 400.5C31.9911 396.941 28.6285 394.757 27 394.5C20.4999 393.5 16.5 398 14 400.5C11.5 403 3.49986 404.5 2.49986 407C1.49986 409.5 0.999863 411.5 1.49986 418.5C1.99986 425.5 24.9999 432 28.9999 433C32.9999 434 47.4999 433 51.9999 428.5Z" fill="#D9D9D9"/>
<path d="M88 461C83.2 449.8 69.6667 445 63.5 444C55.1 442.8 48 444.5 45.5 445.5C43 446.667 38.4 451.1 40 459.5C42 470 45 471.5 55.5 484C66 496.5 71 518.5 71 528C71 537.5 57 543.5 55.5 544C54 544.5 51.5 546.5 53 549.5C54.5 552.5 53.5 555 92.5 579C127.3 601.4 158 607.667 169 608C174.833 605.667 183 597.7 169 584.5C148 579.5 118 557.5 110.5 536.5C106.5 489 94 475 88 461Z" fill="#D9D9D9"/>
<path d="M213.5 592.5C207.5 585.7 189.667 585.667 181.5 586.5L182 587C187.6 592.2 189 596.667 189 598.5C189.333 599.5 189 602.6 185 607C186 612.5 189 612.5 189.5 613C190 613.5 207 617.5 209 615.5C211 613.5 210 614 215 610.5C220 609.5 221.5 607.5 222 605.5C222.5 603.5 221 601 213.5 592.5Z" fill="#D9D9D9"/>
<path d="M644.5 61.5C616.5 51.9 611.5 52 609.5 54C607.5 55.9999 607 58.4998 607 59.9999C607 61.5 609.2 70.6999 628 91.4999C651.5 117.5 677 133.5 686 141C695 148.5 721.5 163 723 156C724.5 149 723.5 150.5 709.5 130C695.5 109.5 690.5 91.9999 676 77.4999C661.5 62.9999 651.5 62.9999 644.5 61.5Z" fill="#D9D9D9"/>
<path d="M432.5 5.50004C354.5 -8.89996 271.667 11.5 240 23.5C111.5 70.5001 80.5 102 51.9999 164.5C23.4997 227 32.5 301 37.5 329C42.5 357 71 410.5 100.5 425C124.1 436.6 138.333 467.167 142.5 481C144.833 494.667 153.8 526.8 171 546C192.5 570 239 579 324 587.5C545 601 557 600 613.5 584.5C670 569 684 533 712.5 485.5C736.9 455.9 748 354.5 750.5 307.5C751.667 282.333 743.3 222.4 700.5 184C647 136 628 119.5 609.5 97C594.7 79 580 65.8333 574.5 61.5C559.667 48.8333 510.5 19.9 432.5 5.50004Z" fill="#D9D9D9"/>
<path d="M51.9999 428.5C56.4999 424 46.5 414.5 41.9999 410.5C39.814 408.557 38.0089 404.059 35 400.5C31.9911 396.941 28.6285 394.757 27 394.5C20.4999 393.5 16.5 398 14 400.5C11.5 403 3.49986 404.5 2.49986 407C1.49986 409.5 0.999863 411.5 1.49986 418.5C1.99986 425.5 24.9999 432 28.9999 433C32.9999 434 47.4999 433 51.9999 428.5Z" stroke="black"/>
<path d="M88 461C83.2 449.8 69.6667 445 63.5 444C55.1 442.8 48 444.5 45.5 445.5C43 446.667 38.4 451.1 40 459.5C42 470 45 471.5 55.5 484C66 496.5 71 518.5 71 528C71 537.5 57 543.5 55.5 544C54 544.5 51.5 546.5 53 549.5C54.5 552.5 53.5 555 92.5 579C127.3 601.4 158 607.667 169 608C174.833 605.667 183 597.7 169 584.5C148 579.5 118 557.5 110.5 536.5C106.5 489 94 475 88 461Z" stroke="black"/>
<path d="M213.5 592.5C207.5 585.7 189.667 585.667 181.5 586.5L182 587C187.6 592.2 189 596.667 189 598.5C189.333 599.5 189 602.6 185 607C186 612.5 189 612.5 189.5 613C190 613.5 207 617.5 209 615.5C211 613.5 210 614 215 610.5C220 609.5 221.5 607.5 222 605.5C222.5 603.5 221 601 213.5 592.5Z" stroke="black"/>
<path d="M644.5 61.5C616.5 51.9 611.5 52 609.5 54C607.5 55.9999 607 58.4998 607 59.9999C607 61.5 609.2 70.6999 628 91.4999C651.5 117.5 677 133.5 686 141C695 148.5 721.5 163 723 156C724.5 149 723.5 150.5 709.5 130C695.5 109.5 690.5 91.9999 676 77.4999C661.5 62.9999 651.5 62.9999 644.5 61.5Z" stroke="black"/>
<path d="M432.5 5.50004C354.5 -8.89996 271.667 11.5 240 23.5C111.5 70.5001 80.5 102 51.9999 164.5C23.4997 227 32.5 301 37.5 329C42.5 357 71 410.5 100.5 425C124.1 436.6 138.333 467.167 142.5 481C144.833 494.667 153.8 526.8 171 546C192.5 570 239 579 324 587.5C545 601 557 600 613.5 584.5C670 569 684 533 712.5 485.5C736.9 455.9 748 354.5 750.5 307.5C751.667 282.333 743.3 222.4 700.5 184C647 136 628 119.5 609.5 97C594.7 79 580 65.8333 574.5 61.5C559.667 48.8333 510.5 19.9 432.5 5.50004Z" stroke="black"/>
</svg>
